<mxfile host="65bd71144e">
    <diagram id="OVotnngV8P-n43VD7CaG" name="Page-1">
        <mxGraphModel dx="816" dy="424" grid="1" gridSize="10" guides="1" tooltips="1" connect="1" arrows="1" fold="1" page="1" pageScale="1" pageWidth="850" pageHeight="1100" math="0" shadow="0">
            <root>
                <mxCell id="0"/>
                <mxCell id="1" parent="0"/>
                <mxCell id="4" value="" style="whiteSpace=wrap;html=1;aspect=fixed;fontSize=14;" parent="1" vertex="1">
                    <mxGeometry x="280" y="220" width="430" height="430" as="geometry"/>
                </mxCell>
                <mxCell id="10" style="edgeStyle=none;html=1;fontSize=14;" parent="1" source="2" target="3" edge="1">
                    <mxGeometry relative="1" as="geometry"/>
                </mxCell>
                <mxCell id="2" value="&lt;font style=&quot;font-size: 14px;&quot;&gt;docker compose&lt;br&gt;greenbone-community-container&lt;br&gt;&lt;/font&gt;" style="rounded=1;whiteSpace=wrap;html=1;" parent="1" vertex="1">
                    <mxGeometry x="410" y="110" width="220" height="90" as="geometry"/>
                </mxCell>
                <mxCell id="5" value="Daemon" style="text;html=1;align=center;verticalAlign=middle;resizable=0;points=[];autosize=1;strokeColor=none;fillColor=none;fontSize=14;" parent="1" vertex="1">
                    <mxGeometry x="480" y="80" width="80" height="30" as="geometry"/>
                </mxCell>
                <mxCell id="13" style="edgeStyle=none;html=1;fontSize=14;entryX=0.5;entryY=0;entryDx=0;entryDy=0;" parent="1" source="3" target="12" edge="1">
                    <mxGeometry relative="1" as="geometry">
                        <mxPoint x="520" y="370" as="targetPoint"/>
                    </mxGeometry>
                </mxCell>
                <mxCell id="3" value="Popen&lt;br&gt;gvm-tools service" style="rounded=1;whiteSpace=wrap;html=1;fontSize=14;" parent="1" vertex="1">
                    <mxGeometry x="460" y="240" width="120" height="50" as="geometry"/>
                </mxCell>
                <mxCell id="11" value="python" style="rounded=1;whiteSpace=wrap;html=1;fontSize=14;" parent="1" vertex="1">
                    <mxGeometry x="290" y="210" width="60" height="20" as="geometry"/>
                </mxCell>
                <mxCell id="17" value="" style="edgeStyle=none;html=1;" parent="1" source="12" target="16" edge="1">
                    <mxGeometry relative="1" as="geometry"/>
                </mxCell>
                <mxCell id="12" value="while" style="rounded=1;whiteSpace=wrap;html=1;fontSize=14;" parent="1" vertex="1">
                    <mxGeometry x="465" y="310" width="110" height="30" as="geometry"/>
                </mxCell>
                <mxCell id="19" value="" style="edgeStyle=none;html=1;" parent="1" source="16" target="18" edge="1">
                    <mxGeometry relative="1" as="geometry"/>
                </mxCell>
                <mxCell id="16" value="True" style="rhombus;whiteSpace=wrap;html=1;fontSize=14;rounded=1;" parent="1" vertex="1">
                    <mxGeometry x="480" y="360" width="80" height="55" as="geometry"/>
                </mxCell>
                <mxCell id="21" value="" style="edgeStyle=none;html=1;" parent="1" source="18" target="20" edge="1">
                    <mxGeometry relative="1" as="geometry"/>
                </mxCell>
                <mxCell id="18" value="user_input" style="whiteSpace=wrap;html=1;fontSize=14;rounded=1;" parent="1" vertex="1">
                    <mxGeometry x="460" y="430" width="120" height="30" as="geometry"/>
                </mxCell>
                <mxCell id="23" value="" style="edgeStyle=none;html=1;" parent="1" source="20" target="22" edge="1">
                    <mxGeometry relative="1" as="geometry"/>
                </mxCell>
                <mxCell id="25" value="" style="edgeStyle=none;html=1;" parent="1" source="20" target="24" edge="1">
                    <mxGeometry relative="1" as="geometry"/>
                </mxCell>
                <mxCell id="20" value="'exit'" style="rhombus;whiteSpace=wrap;html=1;fontSize=14;rounded=1;" parent="1" vertex="1">
                    <mxGeometry x="480" y="480" width="80" height="60" as="geometry"/>
                </mxCell>
                <mxCell id="26" style="edgeStyle=none;html=1;entryX=0;entryY=0.5;entryDx=0;entryDy=0;" parent="1" source="22" target="16" edge="1">
                    <mxGeometry relative="1" as="geometry">
                        <mxPoint x="460" y="445" as="targetPoint"/>
                        <Array as="points">
                            <mxPoint x="360" y="388"/>
                        </Array>
                    </mxGeometry>
                </mxCell>
                <mxCell id="22" value="interact with&lt;br&gt;gvm-tools&lt;br&gt;(gvm-cli command)" style="rounded=1;whiteSpace=wrap;html=1;fontSize=14;" parent="1" vertex="1">
                    <mxGeometry x="290" y="480" width="140" height="60" as="geometry"/>
                </mxCell>
                <mxCell id="24" value="End loop" style="whiteSpace=wrap;html=1;fontSize=14;rounded=1;" parent="1" vertex="1">
                    <mxGeometry x="460" y="580" width="120" height="40" as="geometry"/>
                </mxCell>
                <mxCell id="27" value="false" style="text;html=1;align=center;verticalAlign=middle;resizable=0;points=[];autosize=1;strokeColor=none;fillColor=none;" parent="1" vertex="1">
                    <mxGeometry x="430" y="480" width="50" height="30" as="geometry"/>
                </mxCell>
                <mxCell id="28" value="true" style="text;html=1;align=center;verticalAlign=middle;resizable=0;points=[];autosize=1;strokeColor=none;fillColor=none;" parent="1" vertex="1">
                    <mxGeometry x="520" y="540" width="40" height="30" as="geometry"/>
                </mxCell>
            </root>
        </mxGraphModel>
    </diagram>
    <diagram id="-vEJhI01dJSwZFi-fyXd" name="Page-2">
        <mxGraphModel dx="1028" dy="253" grid="1" gridSize="10" guides="1" tooltips="1" connect="1" arrows="1" fold="1" page="1" pageScale="1" pageWidth="850" pageHeight="1100" math="0" shadow="0">
            <root>
                <mxCell id="0"/>
                <mxCell id="1" parent="0"/>
                <mxCell id="kZlOpqmGa88Nfg7KR0OX-2" style="edgeStyle=none;html=1;entryX=1;entryY=0.75;entryDx=0;entryDy=0;exitX=0;exitY=0.75;exitDx=0;exitDy=0;" parent="1" source="_tj_UgwSMXmDJh65J0I1-1" target="_tj_UgwSMXmDJh65J0I1-2" edge="1">
                    <mxGeometry relative="1" as="geometry">
                        <mxPoint x="480" y="440" as="sourcePoint"/>
                    </mxGeometry>
                </mxCell>
                <mxCell id="_tj_UgwSMXmDJh65J0I1-1" value="greenbone community container" style="rounded=1;whiteSpace=wrap;html=1;" parent="1" vertex="1">
                    <mxGeometry x="690" y="290" width="150" height="90" as="geometry"/>
                </mxCell>
                <mxCell id="_tj_UgwSMXmDJh65J0I1-4" value="" style="edgeStyle=none;html=1;exitX=1.028;exitY=0.413;exitDx=0;exitDy=0;entryX=0.011;entryY=0.413;entryDx=0;entryDy=0;entryPerimeter=0;exitPerimeter=0;" parent="1" source="_tj_UgwSMXmDJh65J0I1-2" target="_tj_UgwSMXmDJh65J0I1-1" edge="1">
                    <mxGeometry relative="1" as="geometry">
                        <mxPoint x="420" y="440" as="targetPoint"/>
                    </mxGeometry>
                </mxCell>
                <mxCell id="_tj_UgwSMXmDJh65J0I1-7" style="edgeStyle=none;html=1;entryX=1;entryY=0.75;entryDx=0;entryDy=0;exitX=0;exitY=0.75;exitDx=0;exitDy=0;" parent="1" source="_tj_UgwSMXmDJh65J0I1-2" target="_tj_UgwSMXmDJh65J0I1-3" edge="1">
                    <mxGeometry relative="1" as="geometry">
                        <mxPoint x="530" y="435" as="targetPoint"/>
                        <mxPoint x="350" y="388" as="sourcePoint"/>
                    </mxGeometry>
                </mxCell>
                <mxCell id="_tj_UgwSMXmDJh65J0I1-2" value="Python API" style="rounded=1;whiteSpace=wrap;html=1;" parent="1" vertex="1">
                    <mxGeometry x="315" y="290" width="120" height="90" as="geometry"/>
                </mxCell>
                <mxCell id="_tj_UgwSMXmDJh65J0I1-5" value="" style="edgeStyle=none;html=1;exitX=1;exitY=0.367;exitDx=0;exitDy=0;entryX=-0.013;entryY=0.38;entryDx=0;entryDy=0;entryPerimeter=0;exitPerimeter=0;" parent="1" source="_tj_UgwSMXmDJh65J0I1-3" target="_tj_UgwSMXmDJh65J0I1-2" edge="1">
                    <mxGeometry relative="1" as="geometry"/>
                </mxCell>
                <mxCell id="_tj_UgwSMXmDJh65J0I1-3" value="資安平台" style="rounded=1;whiteSpace=wrap;html=1;" parent="1" vertex="1">
                    <mxGeometry x="30" y="290" width="120" height="90" as="geometry"/>
                </mxCell>
                <mxCell id="kZlOpqmGa88Nfg7KR0OX-1" value="(第一次執行，進入docker container內)&lt;br&gt;docker-compose run gvm-tools&lt;br&gt;&lt;br&gt;(後續在容器內透過指令溝通)&lt;br&gt;&amp;nbsp;gvm-cli --xml=&quot;command&quot;" style="text;html=1;align=center;verticalAlign=middle;resizable=0;points=[];autosize=1;strokeColor=none;fillColor=none;" parent="1" vertex="1">
                    <mxGeometry x="450" y="230" width="230" height="90" as="geometry"/>
                </mxCell>
                <mxCell id="dliEh5-l7y_idKdEwHuS-1" value="xml的回傳值" style="text;html=1;align=center;verticalAlign=middle;resizable=0;points=[];autosize=1;strokeColor=none;fillColor=none;" parent="1" vertex="1">
                    <mxGeometry x="520" y="370" width="90" height="30" as="geometry"/>
                </mxCell>
            </root>
        </mxGraphModel>
    </diagram>
</mxfile>